<svg height="511pt" viewBox="0 -18 511.9993 511" width="511pt" xmlns="http://www.w3.org/2000/svg"><path d="m496.023438 77.902344-35.882813-21.335938v72.425782c0 28.34375-29.230469 47.246093-55.074219 35.625l-28.265625-107.742188 11.886719-8.765625 57.417969-42.34375c13.425781-9.894531 32.503906-5.355469 40.03125 9.519531l24.675781 48.804688c4.757812 9.410156-5.726562 19.199218-14.789062 13.8125zm0 0" fill="#ff903e"/><path d="m460.140625 128.992188c0 28.34375-29.230469 47.246093-55.074219 35.625l-28.265625-107.742188 11.886719-8.765625c.011719 46.539063 45.863281 97.339844 71.453125 80.882813zm0 0" fill="#e87425"/><path d="m119.085938 429.371094v-38.960938l-39.839844 18.089844v20.871094c-11.796875 1.113281-21.027344 11.039062-21.027344 23.128906 0 12.835938 10.40625 23.238281 23.242188 23.238281 7.097656 0 13.445312-3.191406 17.707031-8.207031 4.261719 5.015625 10.605469 8.207031 17.707031 8.207031 12.835938 0 23.242188-10.402343 23.242188-23.238281-.003907-12.089844-9.234376-22.015625-21.03125-23.128906zm0 0" fill="#e8e7e6"/><path d="m392.90625 429.371094v-20.871094l39.839844-21.039062v41.910156c11.796875 1.113281 21.023437 11.039062 21.023437 23.128906 0 12.832031-10.402343 23.238281-23.238281 23.238281-7.097656 0-13.445312-3.191406-17.707031-8.207031-4.261719 5.015625-10.609375 8.207031-17.707031 8.207031-12.835938 0-23.242188-10.40625-23.242188-23.238281.003906-12.089844 9.234375-22.015625 21.03125-23.128906zm0 0" fill="#e8e7e6"/><path d="m407.0625 408.5v20.863281c-3.410156 1.117188-6.078125 11.046875-6.078125 23.132813 0 9.339844 1.59375 17.398437 3.898437 21.082031-2.96875 1.382813-6.277343 2.160156-9.761718 2.160156-12.839844 0-23.242188-10.40625-23.242188-23.242187 0-12.085938 9.230469-22.015625 21.027344-23.132813v-20.863281zm0 0" fill="#ccc"/><path d="m93.402344 408.5v20.863281c-3.410156 1.117188-6.078125 11.046875-6.078125 23.132813 0 9.339844 1.59375 17.398437 3.898437 21.082031-2.96875 1.382813-6.277344 2.160156-9.761718 2.160156-12.839844 0-23.242188-10.40625-23.242188-23.242187 0-12.085938 9.230469-22.015625 21.027344-23.132813v-20.863281zm0 0" fill="#ccc"/><path d="m135.199219 56.875-28.269531 107.742188c-25.851563 11.621093-55.070313-7.28125-55.070313-35.625v-72.425782l-35.882813 21.335938c-9.0625 5.386718-19.546874-4.402344-14.789062-13.8125l24.675781-48.804688c7.515625-14.875 26.605469-19.414062 40.019531-9.519531l38.867188 28.652344zm0 0" fill="#e87425"/><path d="m156.4375 300.425781c0 6.90625-.730469 13.59375-2.113281 19.921875v.023438c-2.835938 13.09375-8.402344 24.714844-15.863281 33.789062-12.261719 14.917969-19.378907 33.414063-19.378907 52.738282v1.601562h-39.832031v-1.601562c0-19.324219-7.113281-37.820313-19.378906-52.738282-11.066406-13.46875-17.972656-32.558594-17.972656-53.734375 0-19.554687 5.886718-37.328125 15.507812-50.542969 1.925781-2.65625 4.003906-5.125 6.21875-7.382812l1.859375-1.824219.519531-.5c19.414063-18.714843 45.996094-36.355469 45.996094-36.355469l44.414062 94.738282c.011719.617187.023438 1.238281.023438 1.867187zm0 0" fill="#ff903e"/><path d="m91.902344 242.503906c-9.121094 13.523438-14.964844 34.453125-14.964844 57.925782 0 21.171874 4.75 40.265624 12.375 53.734374 8.457031 14.917969 13.359375 33.414063 13.359375 52.734376v1.605468h-23.421875v-1.605468c0-19.320313-7.113281-37.816407-19.378906-52.734376-11.066406-13.46875-17.972656-32.5625-17.972656-53.734374 0-23.472657 8.488281-44.402344 21.726562-57.925782.507812-.507812 1.027344-1.019531 1.550781-1.527344.097657-.101562.207031-.199218.308594-.300781l-.019531.019531c19.460937-18.910156 46.535156-36.882812 46.535156-36.882812l4.285156 9.140625c-6.488281 6.894531-15.375 16.898437-22.746094 27.226563l-.351562.496093-.191406.265625zm0 0" fill="#e87425"/><path d="m93.539062 240.179688-.351562.496093s0 0 0-.007812c.109375-.167969.230469-.324219.351562-.488281zm0 0" fill="#e87425"/><path d="m399.992188 203.816406s28.828124 19.132813 48.375 38.683594l-2.378907-2.324219c.175781.167969.351563.332031.519531.5.628907.585938 1.261719 1.195313 1.859376 1.824219 13.238281 13.527344 21.726562 34.453125 21.726562 57.929688 0 21.171874-6.90625 40.261718-17.976562 53.730468-12.261719 14.921875-19.378907 33.414063-19.378907 52.738282v1.605468h-39.832031v-1.605468c0-19.324219-7.113281-37.816407-19.378906-52.738282-11.066406-13.46875-17.972656-32.558594-17.972656-53.730468 0-.632813.011718-1.25.023437-1.871094" fill="#ff903e"/><path d="m406.011719 242.503906c-7.789063 13.523438-12.792969 34.453125-12.792969 57.925782 0 21.171874 4.074219 40.265624 10.582031 53.734374 7.226563 14.917969 11.410157 33.414063 11.410157 52.734376v1.605468h-22.300782v-1.605468c0-19.320313-7.117187-37.816407-19.378906-52.734376-11.070312-13.46875-17.976562-32.5625-17.976562-53.734374 0-.628907.011718-1.25.023437-1.871094l44.414063-94.746094s9.726562 6.460938 21.714843 15.691406c-4.605469 6.035156-9.785156 13.269532-14.300781 20.675782l-.296875.488281v.007812l-.199219.324219zm0 0" fill="#e87425"/><path d="m405.445312 150.515625c0-109.640625-66.910156-132.125-149.449218-132.125-82.539063 0-149.449219 22.480469-149.449219 132.125 0 59.851563 19.941406 113.515625 51.472656 149.914063 0 0 51.949219 54.671874 70.605469 74.398437 14.863281 15.726563 39.878906 15.726563 54.746094 0 18.652344-19.726563 70.601562-74.398437 70.601562-74.398437 31.535156-36.398438 51.472656-90.0625 51.472656-149.914063zm0 0" fill="#ff903e"/><g fill="#e87425"><path d="m255.992188 386.625c-9.972657 0-19.933594-3.941406-27.371094-11.796875-18.648438-19.722656-70.597656-74.398437-70.597656-74.398437-31.53125-36.398438-51.476563-90.066407-51.476563-149.90625 0-109.648438 66.914063-132.136719 149.445313-132.136719-37.1875 0-67.335938 22.488281-67.335938 132.136719 0 59.839843 8.988281 113.507812 23.199219 149.90625 0 0 23.40625 54.675781 31.808593 74.398437 3.351563 7.84375 7.835938 11.785156 12.328126 11.796875zm0 0"/><path d="m215.410156 67.105469c32.847656 46.09375 34.148438 179.765625 1.066406 250.652343l-73.316406-106.238281 28.21875-131.144531 31.355469-16.242188c4.382813-2.273437 9.8125-1.042968 12.675781 2.972657zm0 0"/><path d="m295.523438 326.0625c-3.128907 0-6.121094-1.773438-7.527344-4.792969-16.929688-36.273437-26.21875-90.875-24.847656-146.066406 1.414062-57.007813 13.492187-100.972656 33.136718-120.621094 3.242188-3.242187 8.5-3.238281 11.742188 0 3.238281 3.242188 3.238281 8.496094 0 11.738281-35.378906 35.375-38.222656 176.71875-4.992188 247.925782 1.941406 4.15625.144532 9.09375-4.007812 11.035156-1.136719.527344-2.332032.78125-3.503906.78125zm0 0"/><path d="m352.320312 100.292969c-7.632812 0-11.148437-9.871094-5.265624-14.714844 2.78125-2.285156 6.882812-2.496094 9.878906-.492187 2.839844 1.898437 4.238281 5.457031 3.46875 8.777343-.863282 3.722657-4.253906 6.429688-8.082032 6.429688zm0 0"/><path d="m320.777344 87.011719c-7.394532 0-11.054688-9.386719-5.628906-14.390625 5.570312-5.140625 14.757812-.40625 13.863281 7.109375-.488281 4.105469-4.109375 7.28125-8.234375 7.28125zm0 0"/><path d="m326.3125 118.554688c-3.40625 0-6.503906-2.152344-7.734375-5.3125-1.320313-3.398438-.1875-7.410157 2.730469-9.601563 2.800781-2.101563 6.699218-2.222656 9.617187-.28125 2.941407 1.953125 4.335938 5.707031 3.390625 9.101563-.988281 3.554687-4.3125 6.09375-8.003906 6.09375zm0 0"/></g><path d="m174.699219 282.898438c-3.535157 0-6.78125-2.339844-7.878907-5.699219-1.105468-3.390625.101563-7.226563 3.003907-9.316407 6.140625-4.417968 14.765625 1.34375 12.921875 8.734376-.910156 3.644531-4.296875 6.28125-8.046875 6.28125zm0 0" fill="#ff903e"/><path d="m185.765625 255.226562c-7.414063 0-11.039063-9.382812-5.632813-14.390624 2.773438-2.574219 7.089844-2.914063 10.238282-.816407 2.761718 1.84375 4.175781 5.269531 3.527344 8.523438-.765626 3.835937-4.214844 6.683593-8.132813 6.683593zm0 0" fill="#ff903e"/><path d="m414.90625 271.277344c-3.238281 0-6.273438-1.972656-7.578125-4.941406-1.460937-3.328126-.574219-7.332032 2.214844-9.6875 5.691406-4.804688 14.699219.105468 13.570312 7.546874-.609375 4.015626-4.132812 7.082032-8.207031 7.082032zm0 0" fill="#e87425"/><path d="m398.804688 301.15625c-7.410157 0-11.042969-9.378906-5.636719-14.390625 2.777343-2.574219 7.089843-2.914063 10.238281-.8125 2.679688 1.785156 4.121094 5.09375 3.582031 8.269531-.667969 3.945313-4.171875 6.933594-8.183593 6.933594zm0 0" fill="#e87425"/><path d="m427.027344 295.625c-7.636719 0-11.148438-9.871094-5.265625-14.714844 2.878906-2.367187 7.125-2.492187 10.140625-.300781 2.765625 2.007813 4.03125 5.628906 3.121094 8.921875-.980469 3.550781-4.308594 6.09375-7.996094 6.09375zm0 0" fill="#e87425"/><path d="m95.023438 286.769531c-3.410157 0-6.507813-2.140625-7.742188-5.3125-1.300781-3.339843-.234375-7.285156 2.597656-9.5 5.917969-4.632812 14.796875.703125 13.277344 8.140625-.78125 3.832032-4.214844 6.671875-8.132812 6.671875zm0 0" fill="#e87425"/><path d="m158.097656 254.675781c-7.601562 0-11.175781-9.898437-5.261718-14.714843 2.8125-2.292969 6.839843-2.480469 9.863281-.480469 2.898437 1.910156 4.285156 5.554687 3.445312 8.917969-.914062 3.652343-4.285156 6.277343-8.046875 6.277343zm0 0" fill="#ff903e"/><path d="m104.75 34.421875c-3.453125 39.011719-11.5625 94.570313-52.890625 94.570313v-72.425782l-35.882813 21.335938c-9.0625 5.386718-19.546874-4.402344-14.789062-13.8125l24.675781-48.804688c7.515625-14.875 26.605469-19.414062 40.019531-9.519531zm0 0" fill="#ff903e"/><path d="m156.4375 300.425781c0 6.90625-.730469 13.59375-2.113281 19.921875 0-39.078125-70.234375-82.671875-74.71875-46.671875l-22.199219-23.792969c1.925781-2.65625 4.003906-5.125 6.21875-7.382812l1.859375-1.824219.519531-.5c19.414063-18.714843 45.996094-36.355469 45.996094-36.355469l44.414062 94.738282c.011719.617187.023438 1.238281.023438 1.867187zm0 0" fill="#e87425"/></svg>