<?xml version="1.0" encoding="iso-8859-1"?>
<!-- Generator: Adobe Illustrator 19.0.0, SVG Export Plug-In . SVG Version: 6.00 Build 0)  -->
<svg version="1.1" id="Capa_1" xmlns="http://www.w3.org/2000/svg" xmlns:xlink="http://www.w3.org/1999/xlink" x="0px" y="0px"
	 viewBox="0 0 464 464" style="enable-background:new 0 0 464 464;" xml:space="preserve">
<path style="fill:#C1DFF7;" d="M96,112v16c0,4.416,3.584,8,8,8h16l7.608,104l4.664,63.744l10.64,145.424
	c0.616,8.36,7.576,14.832,15.96,14.832h146.256c3.664,0,7.024-1.288,9.736-3.384c0.848-0.656,1.624-1.4,2.336-2.208
	c0.032-0.032,0.064-0.072,0.096-0.104c0.64-0.744,1.192-1.56,1.688-2.408c0.072-0.128,0.16-0.248,0.232-0.376
	c0.424-0.776,0.752-1.616,1.048-2.464c0.072-0.208,0.168-0.4,0.232-0.616c0.304-1.048,0.52-2.136,0.608-3.272l5.512-75.352L344,136
	h16c4.416,0,8-3.584,8-8v-16H96z"/>
<g>
	<path style="fill:#2060A1;" d="M296,40h-16v16c0,8.84-7.16,16-16,16h-64c-8.84,0-16-7.16-16-16V40h-16c-39.768,0-72,32.232-72,72
		h272C368,72.232,335.768,40,296,40z"/>
	<rect x="216" style="fill:#2060A1;" width="32" height="40"/>
	<path style="fill:#2060A1;" d="M200,72h64c8.84,0,16-7.16,16-16V40V16c0-8.84-7.16-16-16-16h-16v40h-32V0h-16
		c-8.84,0-16,7.16-16,16v24v16C184,64.84,191.16,72,200,72z"/>
</g>
<path style="fill:#E8B408;" d="M449.4,241.968L456,176l-32,16l-16.064,42.832c-14.6,5.672-25.248,19.4-26.216,35.928l-3.36,57.088
	c-1.368,23.232-19.2,42.136-42.312,44.856l-9.456,1.112l-5.512,75.352c-0.08,1.128-0.304,2.216-0.608,3.272
	c-0.064,0.216-0.16,0.408-0.232,0.616c-0.288,0.856-0.624,1.68-1.048,2.464c-0.072,0.128-0.152,0.248-0.232,0.376
	c-0.488,0.856-1.048,1.656-1.688,2.408c-0.032,0.032-0.064,0.072-0.096,0.104c-0.704,0.816-1.48,1.552-2.336,2.208l0,0L327.152,464
	c31.592,0,62.208-10.928,86.656-30.936l0,0C445.576,407.072,464,368.192,464,327.152v-53.976
	C464,260.624,458.264,249.52,449.4,241.968z"/>
<polygon style="fill:#DCEDF9;" points="132.272,303.744 127.608,240 0,240 24,464 120,464 134.264,330.896 "/>
<g>
	<path style="opacity:0.24;fill:#222426;enable-background:new    ;" d="M318.976,455.896c-0.488,0.856-1.048,1.656-1.688,2.408
		c-0.032,0.032-0.064,0.072-0.096,0.104c-0.704,0.816-1.48,1.552-2.336,2.208l0,0L327.152,464c31.592,0,62.208-10.928,86.656-30.936
		l0,0C445.576,407.072,464,368.192,464,327.152v-8c0,41.048-18.424,79.928-50.192,105.92l0,0
		c-24.448,20-55.064,30.928-86.656,30.928l-7.296-2.008c-0.208,0.52-0.392,1.048-0.648,1.528
		C319.136,455.648,319.048,455.768,318.976,455.896z"/>
	<path style="opacity:0.24;fill:#222426;enable-background:new    ;" d="M194.664,78h74.664c10.312,0,18.664-8.36,18.664-18.664
		V40.664V40h-8v16c0,8.84-7.16,16-16,16h-64c-8.84,0-16-7.16-16-16V40h-8v0.664v18.664C176,69.64,184.36,78,194.664,78z"/>
	<path style="opacity:0.24;fill:#222426;enable-background:new    ;" d="M132.272,303.744L127.608,240H112v148.528
		c0,22.064-11.368,42.576-30.08,54.272L48,464h72l14.264-133.104L132.272,303.744z"/>
	<polygon style="opacity:0.24;fill:#222426;enable-background:new    ;" points="296,448 168,448 144,184 320,184 	"/>
</g>
<g style="opacity:0.24;">
	<path style="fill:#222426;" d="M248,48h-32c-4.424,0-8-3.584-8-8V0h16v32h16V0h16v40C256,44.416,252.424,48,248,48z"/>
</g>
<g>
	<rect x="152" y="200" style="fill:#E8B408;" width="16" height="16"/>
	<rect x="184" y="232" style="fill:#E8B408;" width="16" height="16"/>
	<rect x="224" y="208" style="fill:#E8B408;" width="16" height="16"/>
	<rect x="272" y="216" style="fill:#E8B408;" width="16" height="16"/>
	<rect x="160" y="272" style="fill:#E8B408;" width="16" height="16"/>
</g>
<g>
</g>
<g>
</g>
<g>
</g>
<g>
</g>
<g>
</g>
<g>
</g>
<g>
</g>
<g>
</g>
<g>
</g>
<g>
</g>
<g>
</g>
<g>
</g>
<g>
</g>
<g>
</g>
<g>
</g>
</svg>
