<svg height="511pt" viewBox="-36 1 511 511.99998" width="511pt" xmlns="http://www.w3.org/2000/svg"><path d="m323.460938 512h-209.121094c-47.324219 0-85.6875-38.363281-85.6875-85.6875v-294.8125h380.5v294.8125c0 47.324219-38.367188 85.6875-85.691406 85.6875zm0 0" fill="#ccf8ff"/><path d="m28.652344 426.3125c0 47.324219 38.363281 85.6875 85.6875 85.6875h57.648437c-24.175781-28.359375-30.503906-80.800781-30.976562-124.96875-.433594-40.625 29-75.351562 69.109375-81.808594 120.1875-19.34375 199.023437-77.125 199.03125-77.128906v-96.59375h-380.5zm0 0" fill="#abebf4"/><path d="m410.5 104.664062h-381.847656l-26.574219 59.578126c-4.316406 9.683593.554687 21.007812 10.5625 24.503906 19.527344 6.824218 25.96875 22.511718 55.578125 22.511718 37.839844 0 37.839844-25.621093 75.675781-25.621093 37.839844 0 37.839844 25.621093 75.683594 25.621093 37.839844 0 37.839844-25.621093 75.679687-25.621093 37.839844 0 37.839844 25.621093 75.675782 25.621093 29.609375 0 36.050781-15.6875 55.578125-22.511718 10.011719-3.496094 14.882812-14.816406 10.5625-24.503906zm0 0" fill="#f79389"/><path d="m126.929688 104.664062h-98.277344l-26.574219 59.578126c-4.316406 9.683593.554687 21.007812 10.5625 24.503906 19.527344 6.824218 25.96875 22.511718 55.578125 22.511718 23.191406 0 32.175781-9.628906 44.363281-17.078124 7.5625-24.566407 13.722657-54.902344 14.347657-89.515626zm0 0" fill="#f9867a"/><path d="m409.152344 104.664062h-380.5v-54.921874c0-27.472657 22.269531-49.742188 49.742187-49.742188h281.011719c27.472656 0 49.742188 22.269531 49.742188 49.742188v54.921874zm0 0" fill="#f79389"/><path d="m126.960938 94.660156c-.710938-53.929687 15.402343-81.078125 30.410156-94.660156h-78.976563c-27.472656 0-49.742187 22.269531-49.742187 49.742188v54.921874h98.28125c.058594-3.296874.070312-6.628906.027344-10.003906zm0 0" fill="#f9867a"/><path d="m405.773438 129.003906h-372.375c-15.988282 0-29.070313-13.082031-29.070313-29.066406 0-15.988281 13.082031-29.070312 29.070313-29.070312h372.375c15.988281 0 29.070312 13.082031 29.070312 29.070312s-13.082031 29.066406-29.070312 29.066406zm0 0" fill="#ffdaaa"/><path d="m96.5625 99.9375c0-15.988281 13.082031-29.070312 29.070312-29.070312h-92.234374c-15.988282 0-29.070313 13.082031-29.070313 29.070312s13.082031 29.066406 29.070313 29.066406h92.234374c-15.988281 0-29.070312-13.078125-29.070312-29.066406zm0 0" fill="#ffc477"/><path d="m409.152344 251.558594h-380.5v174.753906c0 8.292969 1.175781 16.304688 3.375 23.894531h373.746094c2.199218-7.589843 3.378906-15.601562 3.378906-23.894531zm0 0" fill="#fce5ca"/><path d="m28.652344 251.558594v174.753906c0 8.292969 1.175781 16.304688 3.375 23.894531h114.542968c-3.878906-20.707031-5.34375-42.820312-5.558593-63.175781-.4375-40.625 29-75.351562 69.109375-81.808594 69.691406-11.214844 125.476562-35.355468 160.054687-53.664062zm0 0" fill="#ffdaaa"/><path d="m225.210938 380.398438c0 19.9375-16.164063 36.101562-36.101563 36.101562s-36.097656-16.164062-36.097656-36.101562 16.160156-36.097657 36.097656-36.097657 36.101563 16.160157 36.101563 36.097657zm0 0" fill="#e5675a"/><path d="m284.792969 380.398438c0 19.9375-16.164063 36.101562-36.101563 36.101562s-36.097656-16.164062-36.097656-36.101562 16.160156-36.097657 36.097656-36.097657 36.101563 16.160157 36.101563 36.097657zm0 0" fill="#f27564"/><path d="m251.953125 370.929688c-5.796875 0-7.976563-3.9375-7.71875-8.199219 1.378906-22.589844-4.511719-42.238281-17.53125-58.605469-4.769531 36.574219-30.820313 63.222656-32.113281 64.523438-3.007813 3.027343-7.898438 3.042968-10.925782.035156-3.023437-3.007813-3.042968-7.894532-.042968-10.921875.445312-.449219 31.785156-32.664063 28.078125-71.378907-.613281-6.414062 3.15625-8.832031 7.277343-8.835937 4-.003906 7.042969 3.511719 7.363282 3.796875 24.125 21.636719 35.332031 49.335938 33.320312 82.328125-.25 4.101563-3.652344 7.257813-7.707031 7.257813zm0 0" fill="#8dc971"/></svg>