<svg height="512pt" viewBox="-35 0 512 512.00101" width="512pt" xmlns="http://www.w3.org/2000/svg"><path d="m84.265625 250.875v-62.128906c0-36.234375 14.25-70.4375 40.121094-96.308594 25.875-25.875 60.078125-40.121094 96.3125-40.121094s70.4375 14.25 96.308593 40.121094c25.871094 25.871094 40.121094 60.074219 40.121094 96.308594v62.128906h52.316406v-62.128906c0-103.808594-84.9375-188.746094-188.746093-188.746094-103.8125 0-188.75 84.9375-188.75 188.746094v62.128906zm0 0" fill="#eab9a4"/><path d="m310.191406 512h-178.988281c-54.816406 0-99.253906-44.4375-99.253906-99.253906v-199.945313h377.496093v199.945313c0 54.816406-44.4375 99.253906-99.253906 99.253906zm0 0" fill="#c68d6d"/><path d="m31.949219 212.800781v199.945313c0 54.816406 44.4375 99.253906 99.253906 99.253906h48.863281c-11.664062-24.144531-17.34375-50.570312-19.839844-74.402344-3.367187-32.179687 16.570313-61.792968 47.308594-71.90625 17.78125-5.847656 26.269532-18.964844 26.269532-18.964844v-133.925781zm0 0" fill="#bc8264"/><path d="m409.078125 277.433594h-376.761719c-17.773437 0-32.316406-14.542969-32.316406-32.316406 0-17.773438 14.542969-32.316407 32.316406-32.316407h376.761719c17.773437 0 32.316406 14.539063 32.316406 32.316407 0 17.773437-14.542969 32.316406-32.316406 32.316406zm0 0" fill="#dd9f80"/><path d="m89.308594 212.800781h262.78125l-99.171875 120.789063c-16.675781 20.3125-47.761719 20.3125-64.4375 0zm0 0" fill="#b2e59c"/><path d="m99.398438 375.347656-17.570313-17.570312c-4.941406-4.941406-4.941406-12.960938 0-17.902344l17.570313-17.570312c4.945312-4.941407 12.960937-4.941407 17.90625 0l17.566406 17.570312c4.945312 4.941406 4.945312 12.960938 0 17.902344l-17.566406 17.570312c-4.945313 4.945313-12.960938 4.945313-17.90625 0zm0 0" fill="#a86f56"/><path d="m338.359375 405.574219 17.570313-17.566407c4.941406-4.941406 4.941406-12.960937 0-17.902343l-17.570313-17.570313c-4.941406-4.941406-12.960937-4.941406-17.902344 0l-17.570312 17.570313c-4.941407 4.941406-4.941407 12.960937 0 17.902343l17.570312 17.566407c4.941407 4.945312 12.960938 4.945312 17.902344 0zm0 0" fill="#bc8264"/><path d="m280.441406 463.496094 17.566406-17.566406c4.941407-4.945313 4.941407-12.960938 0-17.90625l-17.566406-17.566407c-4.945312-4.945312-12.960937-4.945312-17.90625 0l-17.566406 17.566407c-4.945312 4.945312-4.945312 12.960937 0 17.90625l17.566406 17.566406c4.945313 4.945312 12.960938 4.945312 17.90625 0zm0 0" fill="#bc8264"/><path d="m167.089844 212.800781h-77.78125l99.171875 120.789063c16.675781 20.3125 47.761719 20.3125 64.4375 0l11.660156-14.199219c-41.625-24.9375-78.359375-76.410156-97.488281-106.589844zm0 0" fill="#9ad880"/></svg>