<svg height="512pt" viewBox="0 0 512 512" width="512pt" xmlns="http://www.w3.org/2000/svg"><path d="m317.3125 196.238281-33.210938-33.210937-202.054687 80.546875-.757813.328125c-4.71875 2.191406-12.789062 6.800781-13.6875 7.320312l-.359374.21875c-9.46875 5.789063-18.253907 12.714844-26.125 20.585938-54.824219 54.824218-54.824219 144.027344 0 198.855468.582031.578126 1.160156 1.148438 1.742187 1.707032 27.179687 26.273437 62.433594 39.410156 97.683594 39.410156 36.007812 0 72.019531-13.707031 99.429687-41.117188 7.910156-7.910156 18.898438-23.625 20.117188-25.394531l.367187-.53125.320313-.558593c.519531-.898438 5.128906-8.976563 7.320312-13.6875l80.875-202.8125zm-254.988281 96.992188c6.148437-6.148438 13.003906-11.566407 20.382812-16.097657 2.910157-1.667968 8.136719-4.566406 10.878907-5.867187l183.277343-73.070313 1.46875 1.46875-150.578125 106.492188c-22.652344 16.015625-42.648437 36.628906-57.84375 59.59375-12.414062 18.765625-21.421875 38.828125-26.453125 58.742188-22.902343-41.976563-16.625-95.773438 18.867188-131.261719zm8.167969 148.277343c7.035156-40.867187 35.4375-83.1875 74.578124-110.867187l123.917969-87.628906-4.652343 6.578125-82.984376 117.339844c-26.773437 37.859374-67.253906 65.683593-106.871093 73.828124-1.332031.273438-2.660157.523438-3.988281.75zm170.242187-23.09375c-1.25 2.621094-3.960937 7.53125-5.648437 10.5-3.21875 4.597657-11.417969 15.863282-16.316407 20.761719-35.488281 35.492188-89.285156 41.769531-131.261719 18.867188 19.914063-5.03125 39.976563-14.039063 58.742188-26.453125 22.964844-15.195313 43.578125-35.191406 59.59375-57.84375l106.492188-150.578125 1.46875 1.46875zm0 0" fill="#d7d7d9"/><path d="m317.3125 196.238281-52.976562 53.351563-82.984376 117.339844c-26.773437 37.859374-67.253906 65.683593-106.871093 73.828124l-31.621094 31.832032c27.179687 26.273437 62.433594 39.410156 97.683594 39.410156 36.007812 0 72.019531-13.707031 99.429687-41.117188 7.910156-7.910156 18.898438-23.625 20.117188-25.394531l.367187-.53125.320313-.558593c.519531-.898438 5.128906-8.976563 7.320312-13.6875l80.875-202.8125zm-76.578125 222.175781c-1.25 2.621094-3.960937 7.53125-5.648437 10.5-3.21875 4.597657-11.417969 15.863282-16.316407 20.761719-35.488281 35.492188-89.285156 41.769531-131.261719 18.867188 19.914063-5.03125 39.976563-14.039063 58.742188-26.453125 22.964844-15.195313 43.578125-35.191406 59.59375-57.84375l106.492188-150.578125 1.46875 1.46875zm0 0" fill="#c6c4cb"/><path d="m512 71.890625-45.816406 45.828125-21.207032 21.203125-95.230468 95.222656-71.890625-71.890625 95.234375-95.222656 21.203125-21.203125 45.816406-45.828125zm0 0" fill="#ff4f19"/><path d="m512 71.890625-45.816406 45.828125-21.207032 21.203125-95.230468 95.222656-35.164063-35.160156 161.699219-162.8125zm0 0" fill="#e50020"/><path d="m466.183594 117.71875-21.207032 21.203125-71.886718-71.890625 21.203125-21.203125zm0 0" fill="#ffd9a7"/><path d="m466.183594 117.71875-21.207032 21.203125-35.488281-35.488281 21.132813-21.277344zm0 0" fill="#ffc273"/></svg>