<svg height="512pt" viewBox="0 -124 512 512" width="512pt" xmlns="http://www.w3.org/2000/svg"><path d="m512 175.28125c0 16.65625-3.386719 30.210938-9.726562 41.234375-30.492188 53.089844-129.203126 47.667969-246.273438 47.667969-141.386719 0-256 7.910156-256-88.902344 0-60.550781 44.835938-113.921875 113.015625-145.40625 40.824219-18.859375 90.027344-29.875 142.984375-29.875 141.386719 0 256 78.472656 256 175.28125zm0 0" fill="#e87425"/><path d="m512 175.28125c0 16.65625-3.386719 30.210938-9.726562 41.234375-46.707032 11.617187-113.082032 9.476563-186.726563 9.476563-141.382813 0-256 7.910156-256-88.902344 0-40.382813 19.949219-77.582032 53.46875-107.214844 40.824219-18.859375 90.027344-29.875 142.984375-29.875 141.386719 0 256 78.472656 256 175.28125zm0 0" fill="#ff903e"/><g fill="#e87425"><path d="m398.621094 29.707031v62.859375c0 6.28125-2.550782 11.953125-6.65625 16.070313-4.117188 4.109375-9.792969 6.65625-16.070313 6.65625-12.550781 0-22.726562-10.175781-22.726562-22.726563v-79.496094c16.027343 4.503907 31.242187 10.09375 45.453125 16.636719zm0 0"/><path d="m255.992188 0c7.65625 0 15.234374.230469 22.726562.679688v91.886718c0 6.28125-2.539062 11.953125-6.65625 16.070313-4.117188 4.109375-9.800781 6.65625-16.070312 6.65625-12.550782 0-22.726563-10.175781-22.726563-22.726563v-91.886718c7.492187-.449219 15.066406-.679688 22.726563-.679688zm0 0"/><path d="m113.371094 29.707031c14.210937-6.542969 29.425781-12.132812 45.453125-16.636719v79.496094c0 6.28125-2.539063 11.953125-6.65625 16.070313-4.117188 4.109375-9.800781 6.65625-16.070313 6.65625-12.546875 0-22.726562-10.175781-22.726562-22.726563zm0 0"/></g><path d="m35.632812 206.199219c-6.894531 0-10.425781-8.707031-5.421874-13.496094 2.265624-2.171875 5.726562-2.78125 8.59375-1.503906 3.167968 1.410156 5.089843 4.851562 4.578124 8.292969-.5625 3.785156-3.90625 6.707031-7.75 6.707031zm0 0" fill="#ff903e"/><path d="m56.007812 228.140625c-3.492187 0-6.613281-2.40625-7.554687-5.75-.933594-3.335937.535156-7.046875 3.523437-8.808594 6.007813-3.546875 13.59375 2.230469 11.523438 8.992188-1 3.257812-4.074219 5.566406-7.492188 5.566406zm0 0" fill="#ff903e"/><path d="m452.527344 110.589844c-7.050782 0-10.488282-9.019532-5.210938-13.691406 5.46875-4.839844 14.382813.15625 12.890625 7.390624-.746093 3.609376-3.980469 6.300782-7.679687 6.300782zm0 0" fill="#e87425"/><path d="m471.335938 132.535156c-7.125 0-10.519532-9.15625-5.097657-13.796875 2.628907-2.246093 6.5625-2.476562 9.441407-.5625 2.625 1.75 3.976562 5.050781 3.320312 8.132813-.757812 3.574218-4.003906 6.226562-7.664062 6.226562zm0 0" fill="#e87425"/><path d="m443.121094 134.101562c-3.265625 0-6.28125-2.117187-7.375-5.195312-1.117188-3.148438-.085938-6.765625 2.558594-8.8125 5.441406-4.21875 13.609374.441406 12.566406 7.324219-.574219 3.789062-3.90625 6.683593-7.75 6.683593zm0 0" fill="#e87425"/><path d="m62.277344 199.929688c-3.332032 0-6.40625-2.214844-7.4375-5.382813-1.035156-3.191406.085937-6.832031 2.832031-8.796875 5.785156-4.144531 13.976563 1.246094 12.199219 8.242188-.875 3.445312-4.03125 5.9375-7.59375 5.9375zm0 0" fill="#ff903e"/></svg>