<svg height="512pt" viewBox="-59 0 512 512.00063" width="512pt" xmlns="http://www.w3.org/2000/svg"><path d="m145.546875 432.269531s6.648437 42.027344-11.96875 70.730469c-2.746094 4.238281.765625 9.746094 5.75 8.917969 22.34375-3.730469 61.667969-6.484375 62.511719-50.097657.15625-8.09375 6.726562-14.667968 14.820312-14.824218 43.613282-.84375 56.367188-40.171875 60.09375-62.519532.828125-4.980468-4.679687-8.492187-8.917968-5.746093-28.699219 18.621093-80.730469 11.976562-80.730469 11.976562zm0 0" fill="#b0bec5"/><path d="m216.726562 234.636719c-5.128906 50.984375 25.378907 77.492187-10.632812 89.496093-36.011719 12.003907-45.015625-31.007812-45.015625-31.007812l9.003906-58.488281zm0 0" fill="#b0bec5"/><path d="m377.890625 67.058594-6.109375-1.832032c-7.734375-2.308593-12.144531-10.433593-9.886719-18.183593.640625-2.203125.953125-4.433594.953125-6.644531 0-8.792969-4.914062-17.125-13.117187-21.1875-52.117188-25.777344-110.855469-24.105469-163.882813-3.949219l-.039062.03125s-.007813.007812-.015625.027343l-41.175781 45.722657 24.964843 107.539062 71.023438 37.011719 35.601562 2.589844c104.625-22.253906 118.429688-86.628906 118.582031-118.386719.046876-10.484375-6.855468-19.738281-16.898437-22.738281zm0 0" fill="#b0bec5"/><path d="m185.847656 15.261719c-93.429687 35.511719-169.117187 128.414062-159.574218 229.605469 6.761718 71.667968 47.972656 139.9375 106.441406 183.078124 12.429687 9.175782 29.484375 8.785157 41.347656-1.113281l2.570312-2.144531-49.898437-133.230469 42.847656-122.875 13.605469-60.671875v-.007812c-16.738281-50.636719 2.617188-92.613282 2.617188-92.613282zm0 0" fill="#5a7582"/><path d="m276.207031 208.183594c-56.199219-31.027344-82.175781-67.472656-93.019531-100.273438 0 0-100.464844 81.507813-84.460938 171.539063 16.007813 90.03125 77.90625 145.238281 77.90625 145.238281 10.976563-9.15625 14.8125-24.25 9.757813-37.621094-23.175781-61.285156-17.402344-156.066406 89.816406-178.882812zm0 0" fill="#90a4ae"/><path d="m156.03125 411.296875c-9.773438 8.15625-21.449219 12.28125-34.058594 8.28125 3.511719 2.882813 7.09375 5.675781 10.742188 8.367187 10.878906 8.027344 25.296875 8.734376 36.675781 2.152344 2.636719-1.523437 4.917969-3.472656 7.242187-5.410156l-10.496093-28.035156c-1.933594 5.582031-5.34375 10.671875-10.105469 14.644531zm0 0" fill="#546e7a"/><path d="m394.105469 84.0625c-1.980469-8.066406-8.261719-14.628906-16.214844-17.003906l-6.109375-1.832032c-.160156-.046874-.308594-.109374-.460938-.160156 1.847657 3.402344 2.882813 7.273438 2.863282 11.335938-.148438 31.761718-13.953125 96.132812-118.578125 118.390625-8.316407 1.769531-16.015625 3.972656-23.144531 6.558593l8.144531 4.242188 35.601562 2.589844c50.679688-10.777344 80.046875-31.441406 96.878907-53.492188 14.175781-18.574218 21.589843-41.585937 21.703124-64.894531.007813-1.933594-.222656-3.859375-.683593-5.734375zm0 0" fill="#90a4ae"/><path d="m313.953125 76.546875c-3.171875 0-6.148437-1.96875-7.277344-5.128906l-5.558593-15.542969c-1.4375-4.019531.65625-8.441406 4.675781-9.875 4.015625-1.4375 8.4375.652344 9.875 4.671875l5.558593 15.542969c1.4375 4.019531-.65625 8.441406-4.671874 9.878906-.859376.304688-1.738282.453125-2.601563.453125zm0 0" fill="#3a484a"/><g fill="#b0bec5"><path d="m91.109375 180.894531c-47.476563-1.320312-99.058594 22.144531-90.082031 77.21875 8 36.511719 48.015625 17.003907 62.019531 4.5 14.003906-12.503906 32.199219-26.21875 46.609375-32.617187 3-1.332032 5.285156-4.039063 7.019531-7.492188 9.464844-18.84375-4.488281-41.023437-25.566406-41.609375zm0 0"/><path d="m120.609375 107.589844c-6.683594 8.269531-8.097656 18.214844-3.15625 22.207031s14.367187.523437 21.050781-7.746094c6.683594-8.273437 8.097656-18.214843 3.15625-22.207031-4.945312-3.996094-14.367187-.527344-21.050781 7.746094zm0 0"/><path d="m76.5625 137.640625c-3.402344 8.375-2.101562 16.816406 2.902344 18.847656s11.820312-3.113281 15.222656-11.488281c3.402344-8.378906 2.101562-16.820312-2.902344-18.851562-5.007812-2.03125-11.820312 3.113281-15.222656 11.492187zm0 0"/><path d="m60.410156 302.046875c1.863282 8.847656 7.65625 15.121094 12.941406 14.007813 5.289063-1.113282 8.0625-9.1875 6.203126-18.039063-1.863282-8.847656-7.65625-15.117187-12.945313-14.007813-5.285156 1.113282-8.0625 9.1875-6.199219 18.039063zm0 0"/><path d="m78.8125 345.410156c3.15625 7.027344 9.117188 11.199219 13.316406 9.3125 4.199219-1.886718 5.046875-9.113281 1.886719-16.140625-3.15625-7.03125-9.117187-11.199219-13.316406-9.3125s-5.046875 9.113281-1.886719 16.140625zm0 0"/></g><path d="m254.601562 195.019531c-106.242187 23.195313-111.914062 117.5625-88.816406 178.652344 4.363282 11.535156 2.09375 24.347656-5.65625 33.527344 9.6875 11.40625 16.503906 17.488281 16.503906 17.488281 7.546876-6.292969 11.71875-15.394531 11.945313-24.816406.101563-4.28125-.609375-8.625-2.1875-12.804688-14.636719-38.703125-16.648437-85.746094 4.511719-122.515625 6.890625-11.976562 16.3125-22.929687 28.746094-32.164062 14.503906-10.773438 33.105468-19.210938 56.558593-24.199219-7.773437-4.292969-14.945312-8.691406-21.605469-13.167969zm0 0" fill="#8597a1"/></svg>